{"title":"Johnny.English.Reborn.2011.Cam.XviD-SiNiSTER","uid":6915972,"size":1330816976,"categoryP":"video","categoryS":"movies","magnet":"?xt=urn:btih:a8be40b96620d25450355f179b506a02ccee14c3&amp;dn=Johnny.English.Reborn.2011.Cam.XviD-SiNiSTER&amp;tr=udp%3A%2F%2Ftracker.openbittorrent.com%3A80&amp;tr=udp%3A%2F%2Fopen.demonii.com%3A1337&amp;tr=udp%3A%2F%2Ftracker.coppersurfer.tk%3A6969&amp;tr=udp%3A%2F%2Fexodus.desync.com%3A6969","seeders":0,"leechers":1,"uploader":"maximersk","files":9,"time":1325030123,"description":"Johnny.English.Reborn.2011.Cam.XviD-SiNiSTER\n\n\n\n\n\n\n*******************************************************************************\nJohnny English Reborn.2011.Cam.Xvid- SiNiSTER\n*******************************************************************************\n\n-------------------------------------------------------------------------------\nGeneral Information\n-------------------------------------------------------------------------------\n\n\n\n\n\nFormat : AVI\nFormat/Info : Audio Video Interleave\nFile size : 1.24 GiB\nDuration : 1h 34mn\nOverall bit rate : 1 868 Kbps\nWriting application : VirtualDubMod 1.5.4.1 (build 2178/release)\nWriting library : VirtualDub build 32839/release\n\nVideo\nID : 0\nFormat : MPEG-4 Visual\nFormat profile : Advanced Simple@L5\nFormat settings, BVOP : No\nFormat settings, QPel : No\nFormat settings, GMC : No warppoints\nFormat settings, Matrix : Custom\nCodec ID : XVID\nCodec ID/Hint : XviD\nDuration : 1h 34mn\nBit rate : 1 730 Kbps\nWidth : 720 pixels\nHeight : 304 pixels\nDisplay aspect ratio : 2.35:1\nFrame rate : 25.000 fps\nColor space : YUV\nChroma subsampling : 4:2:0\nBit depth : 8 bits\nScan type : Progressive\nCompression mode : Lossy\nBits/(Pixel*Frame) : 0.316\nStream size : 1.15 GiB (93%)\nWriting library : XviD 58\n\nAudio\nID : 1\nFormat : MPEG Audio\nFormat version : Version 1\nFormat profile : Layer 3\nMode : Joint stereo\nMode extension : MS Stereo\nCodec ID : 55\nCodec ID/Hint : MP3\nDuration : 1h 34mn\nBit rate mode : Constant\nBit rate : 128 Kbps\nChannel(s) : 2 channels\nSampling rate : 44.1 KHz\nCompression mode : Lossy\nStream size : 86.9 MiB (7%)\nAlignment : Split accross interleaves\nInterleave, duration : 40 ms (1.00 video frame)\n\n\n\nVideo Source: Agent.Dzhonni.Inglish.Perezagruzka.2011.D.TS.Relizlab.....thanks \nAudio Source: &quot;Fury&quot;....thanks\n\n\nGreets:\nDarkScene,HDScene,Noir,CrEwSaDe,blackjesus,ViSiON,HDLiTE,UnKnOwN,IMAGiNE,\nFLAWL3SS,Rx,ELEKTRI4KA,CiNEDUB,BDK,SAFCuk009,HiVE-CM8..... and everybody else we \nrespect.. u know who u are\n\n-------------------------------------------------------------------------------\nPost Information\n-------------------------------------------------------------------------------\nEncoded by...........: SiNiSTER\n\nHave sumthing to offer..looking for suppliers... cammers,cams,screeners, audio\nsupplier.. and any pre retail DVD/BR any RC...if u can provide any email us at\n&lt;a class=&quot;__cf_email__&quot; href=&quot;/cdn-cgi/l/email-protection&quot; data-cfemail=&quot;0e7d6760677d7a6b7c4e667b7d66636f676220636b&quot;&gt;[email&amp;#160;protected]&lt;/a&gt;&lt;script cf-hash='f9e31' type=&quot;text/javascript&quot;&gt;\n/* &lt;![CDATA[ */!function(){try{var t=&quot;currentScript&quot;in document?document.currentScript:function(){for(var t=document.getElementsByTagName(&quot;script&quot;),e=t.length;e--;)if(t[e].getAttribute(&quot;cf-hash&quot;))return t[e]}();if(t&amp;&amp;t.previousSibling){var e,r,n,i,c=t.previousSibling,a=c.getAttribute(&quot;data-cfemail&quot;);if(a){for(e=&quot;&quot;,r=parseInt(a.substr(0,2),16),n=2;a.length-n;n+=2)i=parseInt(a.substr(n,2),16)^r,e+=String.fromCharCode(i);e=document.createTextNode(e),c.parentNode.replaceChild(e,c)}}}catch(u){}}();/* ]]&gt; */&lt;/script&gt;\n&lt;a class=&quot;__cf_email__&quot; href=&quot;/cdn-cgi/l/email-protection&quot; data-cfemail=&quot;496464646464646464646464646464646464646464646464646464646464646464646464646464646464646464646464646464646464646464646464646464646464&quot;&gt;[email&amp;#160;protected]&lt;/a&gt;&lt;script cf-hash='f9e31' type=&quot;text/javascript&quot;&gt;\n/* &lt;![CDATA[ */!function(){try{var t=&quot;currentScript&quot;in document?document.currentScript:function(){for(var t=document.getElementsByTagName(&quot;script&quot;),e=t.length;e--;)if(t[e].getAttribute(&quot;cf-hash&quot;))return t[e]}();if(t&amp;&amp;t.previousSibling){var e,r,n,i,c=t.previousSibling,a=c.getAttribute(&quot;data-cfemail&quot;);if(a){for(e=&quot;&quot;,r=parseInt(a.substr(0,2),16),n=2;a.length-n;n+=2)i=parseInt(a.substr(n,2),16)^r,e+=String.fromCharCode(i);e=document.createTextNode(e),c.parentNode.replaceChild(e,c)}}}catch(u){}}();/* ]]&gt; */&lt;/script&gt;--------------\nRelease Notes\n-------------------------------------------------------------------------------\nsource was decent.. just adjusted RGB, hue, saturation, gamma, brightnesss,levels,\nand smoothed and denoised it.. then used a warp sharpener to bring edges back then \nregular sharpeing to bring detail back. then clened audio up sum removed hiss, pops,\nclicks, leveled out the volume between the 2 channels, ran it thru an eq to balance\nit out sum and then boosted overall volume .. then synced it up to my encode and muxed\nit to it.... enjoy\n\n\n\n\n","torrent":{"xt":"urn:btih:a8be40b96620d25450355f179b506a02ccee14c3","amp;dn":"Johnny.English.Reborn.2011.Cam.XviD-SiNiSTER","amp;tr":["udp%3A%2F%2Ftracker.openbittorrent.com%3A80","udp%3A%2F%2Fopen.demonii.com%3A1337","udp%3A%2F%2Ftracker.coppersurfer.tk%3A6969","udp%3A%2F%2Fexodus.desync.com%3A6969"],"infoHash":"a8be40b96620d25450355f179b506a02ccee14c3","infoHashBuffer":{"type":"Buffer","data":[168,190,64,185,102,32,210,84,80,53,95,23,155,80,106,2,204,238,20,195]},"announce":[],"urlList":[]}}